<svg width="388.00000000000006" height="58" xmlns="http://www.w3.org/2000/svg" xmlns:xlink="http://www.w3.org/1999/xlink">
 <defs>
  <symbol id="svg_19" viewBox="0, 0, 400,400" xmlns:xlink="http://www.w3.org/1999/xlink">
   <g id="svg_9">
    <path id="svg_18" d="m81.667,179l0,141.5l0.375,-0.002c0.206,-0.001 0.675,-0.176 1.041,-0.389c0.792,-0.459 7.757,-4.473 10.834,-6.243c1.191,-0.685 2.954,-1.694 3.916,-2.243c0.963,-0.548 2.875,-1.652 4.25,-2.454c1.375,-0.801 3.85,-2.23 5.5,-3.174c6.161,-3.527 11.91,-6.84 16.917,-9.749c1.237,-0.719 2.85,-1.639 3.583,-2.044c0.734,-0.405 2.459,-1.392 3.834,-2.193c5.446,-3.172 7.066,-4.108 8.666,-5.009c0.917,-0.516 2.642,-1.506 3.834,-2.2c1.191,-0.695 3.441,-1.993 5,-2.886c1.558,-0.893 4.033,-2.317 5.5,-3.164c7.781,-4.493 9.082,-5.241 10,-5.753c0.55,-0.306 1.543,-0.884 2.207,-1.283l1.206,-0.726l2.377,1.363c1.307,0.749 3.314,1.906 4.46,2.569c2.854,1.653 7.709,4.448 12,6.909c1.97,1.13 4.445,2.557 5.5,3.172c1.054,0.615 2.479,1.439 3.166,1.832c0.688,0.394 1.963,1.132 2.834,1.641c0.87,0.51 2.333,1.348 3.25,1.862c0.916,0.515 2.679,1.524 3.916,2.243c1.238,0.719 3.375,1.962 4.75,2.761c1.375,0.799 3.1,1.789 3.834,2.199c1.526,0.855 5.263,2.998 8.666,4.97c2.512,1.457 7.028,4.061 11.834,6.827c7.789,4.481 9.675,5.568 12,6.916c1.375,0.797 4.075,2.353 6,3.457c5.372,3.081 8.76,5.034 11.5,6.629c1.375,0.801 3.287,1.902 4.25,2.448c0.962,0.547 3.287,1.882 5.166,2.968c1.879,1.086 4.167,2.401 5.084,2.923c0.916,0.521 3.129,1.794 4.916,2.828c3.589,2.076 9.995,5.764 12.584,7.245c0.916,0.524 2.604,1.499 3.75,2.166c1.146,0.667 2.908,1.685 3.916,2.262c1.009,0.577 2.996,1.722 4.417,2.544c1.421,0.823 4.308,2.487 6.417,3.698c2.108,1.212 5.295,3.048 7.083,4.081c1.787,1.032 3.688,2.13 4.224,2.438c1.053,0.606 1.845,0.723 2.008,0.297c0.291,-0.759 0.103,-84.863 -0.19,-85.212c-0.254,-0.3 -7.196,-4.377 -11.375,-6.68c-0.78,-0.429 -2.392,-1.349 -3.584,-2.044c-1.191,-0.694 -3.404,-1.973 -4.916,-2.842c-1.513,-0.869 -3.838,-2.205 -5.167,-2.969c-1.329,-0.764 -3.167,-1.811 -4.083,-2.328c-1.949,-1.097 -5.475,-3.117 -9,-5.155c-3.152,-1.822 -6.027,-3.468 -8.167,-4.676c-0.917,-0.518 -3.729,-2.13 -6.25,-3.583c-2.521,-1.453 -5.333,-3.066 -6.25,-3.584c-0.917,-0.519 -3.729,-2.13 -6.25,-3.581c-2.521,-1.451 -5.146,-2.948 -5.833,-3.326c-0.688,-0.378 -2.15,-1.215 -3.25,-1.861c-1.1,-0.646 -2.45,-1.424 -3,-1.729c-0.55,-0.305 -2.05,-1.171 -3.334,-1.923c-1.283,-0.753 -2.708,-1.559 -3.166,-1.793c-1.801,-0.915 -2.567,-0.255 6.083,-5.243c1.512,-0.872 3.725,-2.151 4.917,-2.842c1.191,-0.691 2.992,-1.718 4,-2.284c1.009,-0.565 2.404,-1.374 3.1,-1.796c0.697,-0.423 1.709,-1.009 2.25,-1.301c0.541,-0.293 2.033,-1.146 3.316,-1.896c1.284,-0.75 2.671,-1.551 3.084,-1.78c0.412,-0.229 2.55,-1.456 4.75,-2.726c2.2,-1.271 5.65,-3.26 7.666,-4.421c2.017,-1.16 4.942,-2.845 6.5,-3.744c7.923,-4.57 12.715,-7.325 15.584,-8.96c0.962,-0.548 2.875,-1.652 4.25,-2.452c1.375,-0.8 4.037,-2.338 5.916,-3.417c1.879,-1.079 4.429,-2.544 5.667,-3.256c1.237,-0.713 3.225,-1.856 4.417,-2.541c3.095,-1.78 3.257,-1.507 -3,-5.034c-1.009,-0.569 -4.159,-2.373 -7,-4.01c-2.842,-1.637 -5.655,-3.25 -6.25,-3.585c-0.596,-0.334 -3.146,-1.794 -5.667,-3.243c-2.521,-1.45 -5.333,-3.06 -6.25,-3.579c-0.917,-0.518 -3.729,-2.133 -6.25,-3.588c-2.521,-1.454 -5.333,-3.068 -6.25,-3.585c-0.917,-0.517 -3.467,-1.978 -5.667,-3.246c-2.2,-1.268 -4.75,-2.73 -5.666,-3.25c-0.917,-0.52 -4.78,-2.735 -8.584,-4.922c-3.804,-2.187 -7.666,-4.401 -8.583,-4.918c-0.917,-0.518 -3.729,-2.131 -6.25,-3.585c-7.296,-4.207 -8.336,-4.769 -8.723,-4.714l-0.36,0.051l-0.042,49.334l-0.042,49.333l-2.375,1.358c-2.178,1.245 -4.028,2.31 -13.208,7.603c-1.742,1.004 -3.767,2.166 -4.5,2.583c-0.733,0.417 -2.233,1.285 -3.333,1.93c-1.1,0.645 -2.75,1.595 -3.667,2.111c-0.917,0.516 -3.392,1.936 -5.5,3.154c-7.317,4.23 -10.51,6.065 -12.353,7.103c-1.019,0.573 -2.151,1.231 -2.514,1.46c-0.364,0.23 -1.518,0.9 -2.564,1.49c-1.953,1.1 -7.238,4.14 -12.986,7.469c-1.787,1.035 -4,2.304 -4.916,2.821c-0.917,0.516 -2.323,1.326 -3.125,1.8l-1.458,0.862l-0.042,-91.286l-0.042,-91.287l-1.167,-0.691c-0.641,-0.381 -2.404,-1.4 -3.916,-2.266c-4.443,-2.543 -8.562,-4.907 -11.417,-6.554c-1.467,-0.846 -3.267,-1.874 -4,-2.285c-1.316,-0.738 -4.167,-2.372 -12,-6.878c-2.2,-1.266 -4.562,-2.613 -5.25,-2.995c-0.687,-0.381 -1.663,-0.942 -2.167,-1.246c-0.504,-0.304 -2.004,-1.169 -3.333,-1.922c-1.329,-0.752 -3.954,-2.253 -5.833,-3.335c-5.083,-2.925 -11.083,-6.362 -12.5,-7.16c-0.688,-0.388 -1.925,-1.1 -2.75,-1.584c-0.825,-0.483 -2.325,-1.344 -3.334,-1.914c-1.008,-0.57 -3.633,-2.074 -5.833,-3.343c-2.2,-1.269 -4.75,-2.731 -5.667,-3.249c-0.916,-0.519 -2.86,-1.631 -4.318,-2.471c-1.64,-0.944 -2.833,-1.528 -3.125,-1.528l-0.473,0l0,141.5" fill="#013B8E" fill-rule="evenodd"/>
    <path id="svg_17" fill="#013B8E" fill-rule="evenodd"/>
    <path id="svg_16" fill="#013B8E" fill-rule="evenodd"/>
    <path id="svg_15" fill="#013B8E" fill-rule="evenodd"/>
    <path id="svg_14" fill="#013B8E" fill-rule="evenodd"/>
    <path id="svg_13" fill="#013B8E" fill-rule="evenodd"/>
    <path id="svg_12" fill="#013B8E" fill-rule="evenodd"/>
    <path id="svg_11" fill="#013B8E" fill-rule="evenodd"/>
    <path id="svg_10" fill="#013B8E" fill-rule="evenodd"/>
   </g>
  </symbol>
 </defs>
 <g>
  <title>background</title>
  <rect x="-1" y="-1" width="390" height="60" id="canvas_background" fill="none"/>
 </g>
 <g>
  <title>Layer 1</title>
  <path d="m56.5807,25.900141l0,-12.61062c1.13241,-0.10966 2.73361,-0.16449 4.8036,-0.16449c1.75341,0 2.95278,0.28633 3.59813,0.85899c0.65753,0.57265 0.98629,1.65704 0.98629,3.25317c0,1.59613 -0.31049,2.68661 -0.93149,3.27145c-0.60882,0.57266 -1.7047,0.85899 -3.28764,0.85899c-0.80364,0 -1.59511,-0.04874 -2.3744,-0.14621l0,4.67872l-2.79449,0zm2.79449,-6.67084l1.93605,0c0.73059,-0.01218 1.22373,-0.1523 1.47944,-0.42035c0.2557,-0.26805 0.38355,-0.79197 0.38355,-1.57176c0,-0.77979 -0.12785,-1.30371 -0.38355,-1.57176c-0.25571,-0.26805 -0.74885,-0.40208 -1.47944,-0.40208l-1.93605,0.01828l0,3.94767zm10.20567,-4.7701c0.79147,-0.93818 2.19784,-1.40728 4.21913,-1.40728c2.02129,0 3.42766,0.4691 4.21913,1.40728c0.79147,0.926 1.1872,2.63787 1.1872,5.13563c0,2.49776 -0.39573,4.21572 -1.1872,5.15391c-0.79147,0.92599 -2.19784,1.38899 -4.21913,1.38899c-2.02129,0 -3.42766,-0.463 -4.21913,-1.38899c-0.77929,-0.93819 -1.16894,-2.65616 -1.16894,-5.15391c0,-2.49776 0.38965,-4.20964 1.16894,-5.13563zm6.15518,1.73624c-0.34094,-0.59702 -0.98629,-0.89553 -1.93605,-0.89553c-0.94976,0 -1.6012,0.29851 -1.95432,0.89553c-0.34094,0.59703 -0.51141,1.73016 -0.51141,3.39939c0,1.66923 0.17047,2.80236 0.51141,3.39938c0.35312,0.59703 1.00456,0.89554 1.95432,0.89554c0.94976,0 1.59511,-0.29851 1.93605,-0.89554c0.35312,-0.59702 0.52967,-1.73015 0.52967,-3.39938c0,-1.66923 -0.17655,-2.80236 -0.52967,-3.39939zm15.27147,7.34706l0.23744,2.06522c-1.09588,0.34116 -2.44138,0.51174 -4.03649,0.51174c-1.94823,0 -3.31807,-0.48737 -4.10954,-1.46211c-0.79096,-0.97473 -1.18669,-2.66224 -1.18669,-5.06252c0,-2.40028 0.39573,-4.08779 1.18669,-5.06253c0.79147,-0.97473 2.16132,-1.4621 4.10954,-1.4621c1.41247,0 2.67273,0.14012 3.78078,0.42036l-0.23744,2.08349c-0.98629,-0.06092 -2.1674,-0.09138 -3.54334,-0.09138c-0.91323,0 -1.54032,0.29242 -1.88126,0.87726c-0.32876,0.57266 -0.49314,1.65096 -0.49314,3.2349c0,1.58394 0.16438,2.66833 0.49314,3.25317c0.34094,0.57266 0.96803,0.85899 1.88126,0.85899c1.69252,0 2.95887,-0.05483 3.79905,-0.16449zm11.53918,0l0.23745,2.06522c-1.09588,0.34116 -2.44138,0.51174 -4.03649,0.51174c-1.94823,0 -3.31807,-0.48737 -4.10954,-1.46211c-0.79147,-0.97473 -1.1872,-2.66224 -1.1872,-5.06252c0,-2.40028 0.39573,-4.08779 1.1872,-5.06253c0.79147,-0.97473 2.16131,-1.4621 4.10954,-1.4621c1.41247,0 2.67273,0.14012 3.78078,0.42036l-0.23744,2.08349c-0.98629,-0.06092 -2.1674,-0.09138 -3.54334,-0.09138c-0.91323,0 -1.54032,0.29242 -1.88126,0.87726c-0.32876,0.57266 -0.49314,1.65096 -0.49314,3.2349c0,1.58394 0.16438,2.66833 0.49314,3.25317c0.34094,0.57266 0.96803,0.85899 1.88126,0.85899c1.69252,0 2.95887,-0.05483 3.79904,-0.16449zm13.43263,2.35764l-2.66664,0l0,-7.52982c0,-0.56047 0.0548,-1.12704 0.16438,-1.69969l-0.12785,0c-0.18264,0.56047 -0.42008,1.11485 -0.71232,1.66314l-4.25566,7.56637l-2.75796,0l0,-12.61062l2.64837,0l0,7.40188c0,0.52392 -0.0487,1.10876 -0.14611,1.75453l0.10958,0c0.1583,-0.463 0.40183,-1.01129 0.73059,-1.64487l4.25566,-7.51154l2.75796,0l0,12.61062zm10.10947,-16.35726l1.78994,0c0.09741,0.77979 -0.12786,1.44992 -0.67579,2.01039c-0.54794,0.54829 -1.31506,0.82243 -2.30135,0.82243c-0.98629,0 -1.75949,-0.27414 -2.31961,-0.82243c-0.56011,-0.56047 -0.79146,-1.2306 -0.69405,-2.01039l1.78993,0c-0.0487,0.99911 0.35921,1.49866 1.22373,1.49866c0.84017,0 1.23591,-0.49955 1.1872,-1.49866zm3.89037,16.35726l-2.66664,0l0,-7.52982c0,-0.56047 0.0548,-1.12704 0.16439,-1.69969l-0.12786,0c-0.18264,0.56047 -0.42008,1.11485 -0.71232,1.66314l-4.25566,7.56637l-2.75796,0l0,-12.61062l2.64837,0l0,7.40188c0,0.52392 -0.0487,1.10876 -0.14611,1.75453l0.10958,0c0.1583,-0.463 0.40183,-1.01129 0.73059,-1.64487l4.25566,-7.51154l2.75796,0l0,12.61062zm12.28296,-2.35764l0.23744,2.06522c-1.09587,0.34116 -2.44137,0.51174 -4.03648,0.51174c-1.94823,0 -3.31807,-0.48737 -4.10954,-1.46211c-0.79147,-0.97473 -1.1872,-2.66224 -1.1872,-5.06252c0,-2.40028 0.39573,-4.08779 1.1872,-5.06253c0.79147,-0.97473 2.16131,-1.4621 4.10954,-1.4621c1.41247,0 2.67273,0.14012 3.78078,0.42036l-0.23744,2.08349c-0.98629,-0.06092 -2.1674,-0.09138 -3.54334,-0.09138c-0.91323,0 -1.54032,0.29242 -1.88126,0.87726c-0.32876,0.57266 -0.49314,1.65096 -0.49314,3.2349c0,1.58394 0.16438,2.66833 0.49314,3.25317c0.34094,0.57266 0.96803,0.85899 1.88126,0.85899c1.69252,0 2.95887,-0.05483 3.79904,-0.16449zm8.73963,-4.25837l0,0.07311c0.23135,0.03655 0.44444,0.07919 0.63926,0.12793c0.19483,0.03655 0.37747,0.10357 0.54794,0.20104c0.18265,0.09747 0.34094,0.18276 0.47488,0.25587c0.13394,0.0731 0.26788,0.20713 0.40183,0.40208c0.14611,0.18276 0.26179,0.32897 0.34702,0.43863c0.09741,0.10965 0.207,0.31069 0.32877,0.60311c0.13394,0.29242 0.23744,0.52392 0.3105,0.6945c0.07305,0.1584 0.17655,0.44472 0.31049,0.85899c0.14612,0.41426 0.25571,0.73714 0.32877,0.96864c0.07306,0.21931 0.19482,0.59702 0.36529,1.13313c0.12176,0.37771 0.21309,0.66404 0.27397,0.85898l-2.90408,0c-0.68188,-2.2297 -1.14458,-3.59433 -1.38811,-4.09388c-0.37747,-0.7676 -0.85235,-1.22451 -1.42464,-1.37072c-0.21918,-0.06092 -0.46879,-0.09138 -0.74885,-0.09138l-0.89497,0c0.09741,0.45081 0.14612,0.85289 0.14612,1.20623l0,4.34975l-2.77622,0l0,-12.61062l2.77622,0l0,3.56387c0,0.47518 -0.04871,0.97474 -0.14612,1.49866l0.85844,0c0.86453,0 1.48552,-0.32898 1.86299,-0.98692c0.38965,-0.65795 0.86453,-1.95556 1.42464,-3.89285c0.02436,-0.08529 0.04262,-0.14621 0.0548,-0.18276l2.83102,0c-0.68188,2.14441 -1.11415,3.41766 -1.29679,3.81974c-0.42618,0.95037 -0.96194,1.57785 -1.60729,1.88246c-0.30441,0.13402 -0.6697,0.23149 -1.09588,0.29242l0,-0.00001zm17.35648,6.61601l-2.66664,0l0,-7.52982c0,-0.56047 0.05479,-1.12704 0.16438,-1.69969l-0.12785,0c-0.18265,0.56047 -0.42009,1.11485 -0.71232,1.66314l-4.25566,7.56637l-2.75796,0l0,-12.61062l2.64837,0l0,7.40188c0,0.52392 -0.0487,1.10876 -0.14612,1.75453l0.10959,0c0.1583,-0.463 0.40182,-1.01129 0.73059,-1.64487l4.25566,-7.51154l2.75796,0l0,12.61062zm10.10846,-16.35726l1.78993,0c0.09741,0.77979 -0.12785,1.44992 -0.67579,2.01039c-0.54794,0.54829 -1.31505,0.82243 -2.30134,0.82243c-0.98629,0 -1.7595,-0.27414 -2.31961,-0.82243c-0.56012,-0.56047 -0.79147,-1.2306 -0.69406,-2.01039l1.78994,0c-0.04871,0.99911 0.3592,1.49866 1.22373,1.49866c0.84017,0 1.2359,-0.49955 1.1872,-1.49866zm3.89036,16.35726l-2.66663,0l0,-7.52982c0,-0.56047 0.05479,-1.12704 0.16438,-1.69969l-0.12785,0c-0.18265,0.56047 -0.42009,1.11485 -0.71232,1.66314l-4.25566,7.56637l-2.75796,0l0,-12.61062l2.64837,0l0,7.40188c0,0.52392 -0.04871,1.10876 -0.14612,1.75453l0.10959,0c0.15829,-0.463 0.40182,-1.01129 0.73058,-1.64487l4.25566,-7.51154l2.75796,0l0,12.61062zm8.56409,0l0,-9.97884c0,-0.79197 0.24962,-1.43773 0.74885,-1.93728c0.49923,-0.49956 1.13241,-0.74933 1.89952,-0.74933c2.63011,0 4.4931,0.06701 5.58898,0.20104l-0.12785,2.04694l-4.32872,0c-0.35312,0 -0.60882,0.0792 -0.76712,0.23759c-0.14611,0.14621 -0.21917,0.40208 -0.21917,0.7676l0,9.41228l-2.79449,0zm11.3951,-11.44094c0.79147,-0.93818 2.19784,-1.40727 4.21913,-1.40727c2.02129,0 3.42766,0.46909 4.21913,1.40727c0.79147,0.926 1.1872,2.63787 1.1872,5.13563c0,2.49776 -0.39573,4.21573 -1.1872,5.15391c-0.79147,0.92599 -2.19784,1.38899 -4.21913,1.38899c-2.02129,0 -3.42766,-0.463 -4.21913,-1.38899c-0.77929,-0.93819 -1.16894,-2.65615 -1.16894,-5.15391c0,-2.49776 0.38965,-4.20963 1.16894,-5.13563zm6.15518,1.73624c-0.34094,-0.59702 -0.98629,-0.89553 -1.93605,-0.89553c-0.94976,0 -1.6012,0.29851 -1.95432,0.89553c-0.34094,0.59703 -0.51141,1.73016 -0.51141,3.39939c0,1.66923 0.17047,2.80236 0.51141,3.39939c0.35312,0.59702 1.00456,0.89553 1.95432,0.89553c0.94976,0 1.59511,-0.29851 1.93605,-0.89553c0.35312,-0.59703 0.52968,-1.73016 0.52968,-3.39939c0,-1.66923 -0.17656,-2.80236 -0.52968,-3.39939zm15.27228,7.34706l0.23744,2.06522c-1.09588,0.34116 -2.44137,0.51174 -4.03649,0.51174c-1.94822,0 -3.31807,-0.48737 -4.10954,-1.4621c-0.79147,-0.97474 -1.1872,-2.66225 -1.1872,-5.06253c0,-2.40028 0.39574,-4.08779 1.1872,-5.06253c0.79147,-0.97473 2.16132,-1.4621 4.10954,-1.4621c1.41247,0 2.67273,0.14012 3.78078,0.42036l-0.23744,2.08349c-0.98629,-0.06092 -2.1674,-0.09138 -3.54334,-0.09138c-0.91323,0 -1.54031,0.29242 -1.88125,0.87726c-0.32877,0.57266 -0.49315,1.65096 -0.49315,3.2349c0,1.58394 0.16438,2.66833 0.49315,3.25318c0.34094,0.57265 0.96802,0.85898 1.88125,0.85898c1.69253,0 2.95888,-0.05483 3.79905,-0.16449zm12.53867,-10.25298l-3.08672,9.35745c-0.3653,1.10876 -0.77929,1.94337 -1.242,2.50385c-0.4627,0.54828 -1.10805,0.85898 -1.93605,0.93209c-0.828,0.0731 -1.83864,-0.01828 -3.03193,-0.27415l0.3105,-1.97384c1.18111,0.06093 1.92996,0.04265 2.24655,-0.05482c0.32876,-0.10966 0.60882,-0.463 0.84017,-1.06003l0.14612,-0.40208l-0.67579,0c-0.81582,0 -1.35767,-0.42035 -1.62555,-1.26106l-2.59358,-7.76741l2.84928,0l1.99085,6.67084c0.03653,0.14621 0.14611,0.21931 0.32876,0.21931l0.45662,0l2.17349,-6.89015l2.84928,0zm11.00951,15.37034l-0.21917,-2.75972l-8.34694,0l-0.21917,2.75972l-1.97258,0l0,-4.77011l1.33331,0c0.86453,-2.1566 1.41247,-4.81275 1.64382,-7.96845c0.06088,-0.79197 0.35312,-1.42555 0.8767,-1.90073c0.52359,-0.48737 1.21156,-0.73105 2.06391,-0.73105l5.16889,0l0,10.60023l1.64381,0l0,4.77011l-1.97258,0zm-2.44746,-4.77011l0,-8.58984l-1.62555,0c-0.36529,0 -0.63317,0.08529 -0.80364,0.25586c-0.1583,0.1584 -0.24962,0.43254 -0.27397,0.82244c-0.14612,1.7667 -0.34094,3.21662 -0.58447,4.34975c-0.24353,1.13313 -0.60273,2.18706 -1.07761,3.16179l4.36524,0zm13.97042,-1.29761l-4.32872,0l-0.91323,3.308l-2.84928,0l3.63466,-11.87957c0.0487,-0.21932 0.16438,-0.39599 0.34703,-0.53001c0.18264,-0.13403 0.38964,-0.20104 0.62099,-0.20104l2.63011,0c0.52359,0 0.84626,0.24368 0.96803,0.73105l3.63466,11.87957l-2.83102,0l-0.91323,-3.308zm-0.60273,-2.1566l-1.05935,-3.85629c-0.14612,-0.60921 -0.23136,-1.0052 -0.25571,-1.18796l-0.49314,0c-0.02436,0.12184 -0.06697,0.31679 -0.12786,0.58484c-0.06088,0.26805 -0.10958,0.46909 -0.14611,0.60312l-1.05935,3.85629l3.14152,0zm6.68384,5.4646l0,-12.61062c1.1324,-0.10966 2.7336,-0.16449 4.8036,-0.16449c1.7534,0 2.95278,0.28633 3.59813,0.85899c0.65753,0.57265 0.98629,1.65704 0.98629,3.25317c0,1.59613 -0.3105,2.68661 -0.9315,3.27145c-0.60882,0.57266 -1.7047,0.85899 -3.28763,0.85899c-0.80365,0 -1.59511,-0.04874 -2.3744,-0.14621l0,4.67872l-2.79449,0zm2.79448,-6.67084l1.93606,0c0.73058,-0.01218 1.22373,-0.1523 1.47943,-0.42035c0.25571,-0.26805 0.38356,-0.79197 0.38356,-1.57176c0,-0.77979 -0.12785,-1.30371 -0.38356,-1.57176c-0.2557,-0.26805 -0.74885,-0.40208 -1.47943,-0.40208l-1.93606,0.01828l0,3.94767zm18.13273,4.3132l0.23744,2.06522c-1.09588,0.34116 -2.44138,0.51174 -4.03649,0.51174c-1.94822,0 -3.31807,-0.48737 -4.10954,-1.46211c-0.79147,-0.97473 -1.1872,-2.66224 -1.1872,-5.06252c0,-2.40028 0.39573,-4.08779 1.1872,-5.06253c0.79147,-0.97473 2.16132,-1.4621 4.10954,-1.4621c1.41247,0 2.67273,0.14012 3.78078,0.42036l-0.23744,2.08349c-0.98629,-0.06092 -2.1674,-0.09138 -3.54334,-0.09138c-0.91323,0 -1.54031,0.29242 -1.88125,0.87726c-0.32877,0.57266 -0.49315,1.65096 -0.49315,3.2349c0,1.58394 0.16438,2.66833 0.49315,3.25317c0.34094,0.57266 0.96802,0.85899 1.88125,0.85899c1.69253,0 2.95887,-0.05483 3.79905,-0.16449zm12.41081,-7.98673l-3.76251,0l0,10.34437l-2.79449,0l0,-10.34437l-3.76251,0l0,-2.26625l10.31952,0l0,2.26625l-0.00001,0zm9.6275,3.76491l0,0.07311c0.93758,0.08529 1.6012,0.40817 1.99084,0.96864c0.40182,0.54829 0.60273,1.34635 0.60273,2.39419c0,1.26716 -0.32267,2.13223 -0.96802,2.59523c-0.64535,0.463 -1.74123,0.6945 -3.28764,0.6945c-2.32569,0 -4.10345,-0.04874 -5.33327,-0.14621l0,-12.61062c1.09588,-0.09748 2.67881,-0.14621 4.74881,-0.14621c1.66817,0 2.82493,0.23149 3.47028,0.69449c0.64535,0.45082 0.96802,1.31589 0.96802,2.59523c0,0.91382 -0.17047,1.60832 -0.51141,2.0835c-0.34094,0.463 -0.90105,0.73105 -1.68034,0.80415zm-4.27393,-0.87726l2.04564,0c0.6697,0 1.12632,-0.10965 1.36985,-0.32897c0.2557,-0.21931 0.38355,-0.65185 0.38355,-1.29761c0,-0.63358 -0.13394,-1.05394 -0.40182,-1.26107c-0.2557,-0.20713 -0.76102,-0.31069 -1.51596,-0.31069l-1.88126,-0.01828l0,3.21662zm0,5.50116l2.1187,0c0.77929,0 1.30288,-0.10966 1.57076,-0.32897c0.26788,-0.2315 0.40182,-0.6945 0.40182,-1.389c0,-0.75542 -0.14003,-1.26106 -0.42009,-1.51693c-0.28006,-0.26805 -0.81582,-0.40817 -1.60729,-0.42035l-2.0639,0l0,3.65525zm18.34175,-0.21931l0.10959,2.04694c-1.13241,0.12184 -3.08063,0.18276 -5.84468,0.18276c-0.84018,0 -1.50988,-0.22541 -2.00911,-0.67622c-0.49924,-0.463 -0.74885,-1.08439 -0.74885,-1.86418l0,-7.63948c0,-0.77979 0.24961,-1.39509 0.74885,-1.8459c0.51141,-0.463 1.18111,-0.6945 2.00911,-0.6945c2.76405,0 4.71227,0.06092 5.84468,0.18276l-0.10959,2.06522l-4.85839,0c-0.30441,0 -0.52359,0.0731 -0.65753,0.21931c-0.13394,0.14621 -0.20091,0.38381 -0.20091,0.71278l0,1.91901l5.02278,0l0,2.01039l-5.02278,0l0,2.43074c0,0.34116 0.06697,0.58484 0.20091,0.73105c0.13394,0.14621 0.35312,0.21932 0.65753,0.21932l4.85839,0zm13.20026,-10.43575l0,12.61062l-2.79449,0l0,-5.62909l-4.43831,0l0,5.62909l-2.77622,0l0,-12.61062l2.77622,0l0,4.82493l4.43831,0l0,-4.82493l2.79449,0zm13.66093,0l0,12.61062l-2.79449,0l0,-5.62909l-4.43831,0l0,5.62909l-2.77622,0l0,-12.61062l2.77622,0l0,4.82493l4.43831,0l0,-4.82493l2.79449,0zm6.42814,4.67872l1.82646,0c1.72905,0 2.92234,0.29242 3.57987,0.87726c0.6697,0.58484 1.00455,1.65096 1.00455,3.19835c0,1.52302 -0.3105,2.57086 -0.93149,3.14352c-0.621,0.57265 -1.68035,0.85898 -3.17805,0.85898c-2.17958,0 -3.84775,-0.04874 -5.00451,-0.14621l-0.07306,0l0,-12.61062l2.77623,0l0,4.67872zm10.97704,-4.67872l0,12.61062l-2.77622,0l0,-12.61062l2.77622,0zm-10.97704,10.60023l1.82646,0c0.74276,0 1.22373,-0.12184 1.4429,-0.36552c0.21918,-0.25587 0.32877,-0.77979 0.32877,-1.57176c0,-0.79197 -0.11568,-1.32808 -0.34703,-1.60831c-0.21918,-0.28024 -0.69406,-0.42036 -1.42464,-0.42036l-1.82646,0l0,3.96595zm21.09565,-14.34687l1.78993,0c0.09741,0.77979 -0.12785,1.44992 -0.67579,2.01039c-0.54794,0.54829 -1.31505,0.82243 -2.30134,0.82243c-0.98629,0 -1.7595,-0.27414 -2.31961,-0.82243c-0.56012,-0.56047 -0.79147,-1.2306 -0.69406,-2.01039l1.78994,0c-0.04871,0.9991 0.3592,1.49866 1.22373,1.49866c0.84017,0 1.2359,-0.49956 1.1872,-1.49866zm3.89036,16.35726l-2.66663,0l0,-7.52982c0,-0.56047 0.05479,-1.12704 0.16438,-1.69969l-0.12785,0c-0.18265,0.56047 -0.42009,1.11485 -0.71232,1.66314l-4.25566,7.56637l-2.75796,0l0,-12.61062l2.64837,0l0,7.40188c0,0.52392 -0.04871,1.10876 -0.14612,1.75453l0.10959,0c0.15829,-0.463 0.40182,-1.01129 0.73058,-1.64487l4.25566,-7.51154l2.75796,0l0,12.61062zm-314.14458,9.72704l-3.08673,9.35745c-0.36529,1.10876 -0.77929,1.94337 -1.24199,2.50384c-0.46271,0.54829 -1.10806,0.85899 -1.93605,0.93209c-0.828,0.07311 -1.83864,-0.01827 -3.03193,-0.27414l0.3105,-1.97384c1.18111,0.06092 1.92996,0.04265 2.24655,-0.05483c0.32876,-0.10965 0.60882,-0.46299 0.84017,-1.06002l0.14612,-0.40208l-0.67579,0c-0.81582,0 -1.35768,-0.42035 -1.62556,-1.26106l-2.59357,-7.76741l2.84928,0l1.99084,6.67083c0.03653,0.14621 0.14612,0.21932 0.32877,0.21932l0.45661,0l2.17349,-6.89015l2.84929,0zm12.37155,0l0,12.61062l-2.79449,0l0,-5.62909l-4.43831,0l0,5.62909l-2.77622,0l0,-12.61062l2.77622,0l0,4.82493l4.43831,0l0,-4.82493l2.79449,0zm14.00765,12.61062l-2.66664,0l0,-7.52982c0,-0.56047 0.0548,-1.12704 0.16439,-1.69969l-0.12786,0c-0.18264,0.56047 -0.42008,1.11485 -0.71232,1.66314l-4.25566,7.56637l-2.75775,0l0,-12.61062l2.64816,0l0,7.40188c0,0.52392 -0.0487,1.10876 -0.14611,1.75453l0.10959,0c0.15829,-0.463 0.40182,-1.01129 0.73058,-1.64487l4.25566,-7.51154l2.75796,0l0,12.61062zm10.62088,-6.57945l0,0.0731c0.93759,0.08529 1.6012,0.40817 1.99085,0.96864c0.40182,0.54829 0.60273,1.34635 0.60273,2.39419c0,1.26716 -0.32267,2.13223 -0.96802,2.59523c-0.64535,0.463 -1.74123,0.6945 -3.28764,0.6945c-2.32569,0 -4.10345,-0.04874 -5.33327,-0.14621l0,-12.61062c1.09588,-0.09748 2.67881,-0.14621 4.7488,-0.14621c1.66817,0 2.82493,0.2315 3.47028,0.69449c0.64535,0.45082 0.96803,1.3159 0.96803,2.59523c0,0.91382 -0.17047,1.60832 -0.51141,2.0835c-0.34094,0.463 -0.90105,0.73105 -1.68035,0.80415l0,0.00001zm-4.27392,-0.87727l2.04564,0c0.6697,0 1.12632,-0.10965 1.36985,-0.32897c0.2557,-0.21931 0.38355,-0.65185 0.38355,-1.29761c0,-0.63358 -0.13394,-1.05393 -0.40182,-1.26107c-0.2557,-0.20713 -0.76103,-0.31069 -1.51596,-0.31069l-1.88126,-0.01828l0,3.21662zm0,5.50116l2.1187,0c0.77929,0 1.30287,-0.10966 1.57076,-0.32897c0.26788,-0.2315 0.40182,-0.6945 0.40182,-1.389c0,-0.75542 -0.14003,-1.26106 -0.42009,-1.51693c-0.28006,-0.26805 -0.81582,-0.40817 -1.60729,-0.42035l-2.0639,0l0,3.65525zm18.34175,-0.21931l0.10959,2.04694c-1.13241,0.12184 -3.08064,0.18276 -5.84468,0.18276c-0.84018,0 -1.50988,-0.22541 -2.00911,-0.67622c-0.49924,-0.463 -0.74885,-1.08439 -0.74885,-1.86418l0,-7.63948c0,-0.77979 0.24961,-1.39509 0.74885,-1.8459c0.51141,-0.463 1.18111,-0.6945 2.00911,-0.6945c2.76404,0 4.71227,0.06092 5.84468,0.18276l-0.10959,2.06522l-4.85839,0c-0.30441,0 -0.52359,0.07311 -0.65753,0.21932c-0.13394,0.14621 -0.20091,0.3838 -0.20091,0.71277l0,1.91901l5.02278,0l0,2.01039l-5.02278,0l0,2.43074c0,0.34116 0.06697,0.58484 0.20091,0.73105c0.13394,0.14621 0.35312,0.21932 0.65753,0.21932l4.85839,0zm3.17297,2.17487l0,-12.61062c1.13241,-0.10966 2.73361,-0.16449 4.8036,-0.16449c1.75341,0 2.95279,0.28633 3.59814,0.85899c0.65752,0.57265 0.98629,1.65704 0.98629,3.25317c0,1.59613 -0.3105,2.68661 -0.9315,3.27145c-0.60882,0.57266 -1.7047,0.85899 -3.28763,0.85899c-0.80365,0 -1.59511,-0.04874 -2.37441,-0.14621l0,4.67872l-2.79448,0l-0.00001,0zm2.79449,-6.67084l1.93605,0c0.73059,-0.01218 1.22373,-0.1523 1.47944,-0.42035c0.2557,-0.26805 0.38356,-0.79197 0.38356,-1.57176c0,-0.77979 -0.12786,-1.30371 -0.38356,-1.57176c-0.25571,-0.26805 -0.74885,-0.40208 -1.47944,-0.40208l-1.93605,0.01828l0,3.94767zm18.13273,4.3132l0.23744,2.06522c-1.09588,0.34116 -2.44138,0.51174 -4.03649,0.51174c-1.94823,0 -3.31807,-0.48737 -4.10954,-1.4621c-0.79147,-0.97474 -1.1872,-2.66225 -1.1872,-5.06253c0,-2.40028 0.39573,-4.08779 1.1872,-5.06253c0.79147,-0.97473 2.16131,-1.4621 4.10954,-1.4621c1.41247,0 2.67273,0.14012 3.78078,0.42036l-0.23744,2.08349c-0.98629,-0.06092 -2.1674,-0.09138 -3.54334,-0.09138c-0.91323,0 -1.54032,0.29242 -1.88126,0.87726c-0.32876,0.57266 -0.49314,1.65096 -0.49314,3.2349c0,1.58394 0.16438,2.66833 0.49314,3.25318c0.34094,0.57265 0.96803,0.85898 1.88126,0.85898c1.69252,0 2.95887,-0.05483 3.79905,-0.16449zm13.43363,2.35764l-2.66663,0l0,-7.52982c0,-0.56047 0.05479,-1.12704 0.16438,-1.69969l-0.12785,0c-0.18265,0.56047 -0.42009,1.11485 -0.71232,1.66314l-4.25566,7.56637l-2.75796,0l0,-12.61062l2.64837,0l0,7.40189c0,0.52392 -0.04871,1.10876 -0.14612,1.75452l0.10959,0c0.15829,-0.463 0.40182,-1.01129 0.73058,-1.64487l4.25566,-7.51154l2.75796,0l0,12.61062zm12.97601,-10.34436l-3.76251,0l0,10.34436l-2.79449,0l0,-10.34436l-3.76252,0l0,-2.26626l10.31952,0l0,2.26626zm11.01662,8.16949l0.10959,2.04694c-1.13241,0.12184 -3.08064,0.18276 -5.84469,0.18276c-0.84017,0 -1.50987,-0.2254 -2.00911,-0.67622c-0.49923,-0.463 -0.74885,-1.08439 -0.74885,-1.86418l0,-7.63948c0,-0.77979 0.24962,-1.39509 0.74885,-1.8459c0.51141,-0.463 1.18112,-0.6945 2.00911,-0.6945c2.76405,0 4.71228,0.06092 5.84469,0.18276l-0.10959,2.06522l-4.85839,0c-0.30441,0 -0.52359,0.07311 -0.65753,0.21932c-0.13394,0.14621 -0.20091,0.3838 -0.20091,0.71277l0,1.91901l5.02277,0l0,2.01039l-5.02277,0l0,2.43074c0,0.34116 0.06697,0.58484 0.20091,0.73105c0.13394,0.14621 0.35312,0.21932 0.65753,0.21932l4.85839,0zm12.52446,-8.16949l-3.76251,0l0,10.34436l-2.79449,0l0,-10.34436l-3.76251,0l0,-2.26626l10.31951,0l0,2.26626zm13.22258,10.34436l-1.43783,0l0,-3.73546c0,-0.0264 0.02131,-0.34756 0.06596,-0.96357l-0.03958,0c-0.08828,0.22876 -0.24657,0.51915 -0.47488,0.87117l-2.78332,3.82786l-1.31912,0l0,-6.46776l1.42464,0l0,3.77506c0,0.31679 -0.01826,0.62038 -0.05276,0.91077l0.03957,0c0.14916,-0.32562 0.30746,-0.59835 0.47488,-0.81837l2.78333,-3.86746l1.31911,0l0,6.46776zm7.89743,-6.46777l1.54336,0c0.37848,0 0.56722,0.18916 0.56722,0.56758l0.23744,5.90019l-1.46422,0l-0.21106,-5.29301l-0.21105,0l-1.25316,4.01266c-0.0964,0.33435 -0.29934,0.50158 -0.60679,0.50158l-1.0421,0c-0.31659,0 -0.52359,-0.16723 -0.61999,-0.50158l-1.25315,-4.01266l-0.19787,0l-0.19787,5.29301l-1.45102,0l0.22425,-5.90019c0,-0.37842 0.19381,-0.56758 0.58041,-0.56758l1.53017,0c0.31658,0 0.51445,0.16723 0.5936,0.50159l1.00252,3.22068c0.0619,0.16723 0.13597,0.48402 0.22425,0.95037l0.17149,0c0.07914,-0.40482 0.14916,-0.72161 0.21106,-0.95037l1.00252,-3.22068c0.0964,-0.33436 0.3034,-0.50159 0.61998,-0.50159l0.00001,0zm8.12066,3.90706l-2.63823,0c0.05276,0.56322 0.20598,0.94154 0.46169,1.13516c0.26382,0.1848 0.68594,0.27719 1.26635,0.27719c0.65955,0 1.43276,-0.05279 2.32164,-0.15839l0.1451,1.02956c-0.61593,0.29039 -1.50379,0.43559 -2.66461,0.43559c-1.16995,0 -2.00099,-0.25963 -2.49312,-0.77878c-0.49315,-0.51914 -0.7387,-1.39478 -0.7387,-2.6267c0,-1.25832 0.2415,-2.13832 0.72551,-2.63991c0.483,-0.51041 1.2836,-0.76557 2.40078,-0.76557c1.02891,0 1.77167,0.18916 2.2293,0.56758c0.46575,0.36959 0.69913,0.92833 0.69913,1.67634c0.01725,1.23192 -0.55402,1.84793 -1.71484,1.84793zm-2.6778,-1.12196l2.2293,0c0.3866,0 0.58041,-0.25079 0.58041,-0.75237c0,-0.35202 -0.09234,-0.59834 -0.27702,-0.73917c-0.18467,-0.14083 -0.51952,-0.21119 -1.00252,-0.21119c-0.57229,0 -0.96295,0.11879 -1.17401,0.35638c-0.21106,0.22876 -0.32978,0.67755 -0.35616,1.34636l0,-0.00001zm11.86896,-2.7851l0,6.46777l-1.56974,0l0,-2.8379l-2.8229,0l0,2.8379l-1.58294,0l0,-6.46777l1.58294,0l0,2.45512l2.8229,0l0,-2.45512l1.56974,0zm7.83249,6.46777l-1.43783,0l0,-3.73546c0,-0.0264 0.02232,-0.34756 0.06595,-0.96357l-0.03957,0c-0.08828,0.22876 -0.24657,0.51915 -0.47488,0.87117l-2.78333,3.82786l-1.31911,0l0,-6.46776l1.42464,0l0,3.77506c0,0.31679 -0.01725,0.62038 -0.05276,0.91077l0.03957,0c0.14916,-0.32562 0.30746,-0.59835 0.47488,-0.81837l2.78333,-3.86746l1.31911,0l0,6.46776zm9.71475,-2.57391l-3.37692,0l-0.7519,2.57391l-1.68846,0l2.73056,-8.67209c0.07915,-0.29039 0.27701,-0.43558 0.5936,-0.43558l1.60932,0c0.31659,0 0.51445,0.14519 0.5936,0.43558l2.73056,8.67209l-1.68846,0l-0.7519,-2.57391zm-0.39573,-1.35955l-0.91019,-3.14148c-0.12278,-0.47519 -0.18873,-0.73481 -0.19787,-0.77878l-0.35616,0l-0.21105,0.77878l-0.91019,3.14148l2.58546,0zm4.2445,2.12513l0.47488,0c0.21917,0 0.36935,0.04396 0.4485,0.13199c0.08726,0.0792 0.13191,0.22439 0.13191,0.43559l0,0.67317c0,0.21119 -0.04465,0.36076 -0.13191,0.44879c-0.07915,0.07919 -0.22933,0.11879 -0.4485,0.11879l-0.47488,0c-0.22019,0 -0.37443,-0.0396 -0.46169,-0.11879c-0.07915,-0.08803 -0.11872,-0.23759 -0.11872,-0.44879l0,-0.67317c0,-0.2112 0.03957,-0.35639 0.11872,-0.43559c0.08726,-0.08803 0.2415,-0.13199 0.46169,-0.13199zm9.75128,-7.29934l0,9.10767l-1.66208,0l0,-4.17105l-3.58798,0l0,4.17105l-1.64889,0l0,-9.10767l1.64889,0l0,3.57707l3.58798,0l0,-3.57707l1.66208,0zm2.37035,7.29934l0.47488,0c0.22019,0 0.36935,0.04396 0.44849,0.13199c0.08828,0.0792 0.13192,0.22439 0.13192,0.43559l0,0.67317c0,0.21119 -0.04364,0.36076 -0.13192,0.44879c-0.07914,0.07919 -0.2283,0.11879 -0.44849,0.11879l-0.47488,0c-0.22019,0 -0.37341,-0.0396 -0.46169,-0.11879c-0.07915,-0.08803 -0.11872,-0.23759 -0.11872,-0.44879l0,-0.67317c0,-0.2112 0.03957,-0.35639 0.11872,-0.43559c0.08828,-0.08803 0.2415,-0.13199 0.46169,-0.13199zm9.43064,-2.9699l0,0.0528c0.74783,0.0792 1.28867,0.38279 1.6225,0.91077c0.33486,0.51915 0.7519,1.53114 1.25316,3.03589c0.11466,0.33435 0.20294,0.59398 0.26382,0.77877l-1.72803,0c-0.51852,-1.56638 -0.86555,-2.53431 -1.0421,-2.90389c-0.31659,-0.62475 -0.70725,-1.00317 -1.17401,-1.13516c-0.1583,-0.04397 -0.34297,-0.066 -0.55403,-0.066l-0.76509,0c0.0619,0.35202 0.09234,0.65114 0.09234,0.89757l0,3.20748l-1.64889,0l0,-9.10767l1.64889,0l0,2.6795c0,0.30796 -0.03044,0.65998 -0.09234,1.05597l0.76509,0c0.27295,0 0.51445,-0.04844 0.72551,-0.1452c0.22019,-0.1056 0.40893,-0.25962 0.56722,-0.46198c0.16743,-0.21119 0.31659,-0.45315 0.4485,-0.72598c0.13191,-0.28155 0.26382,-0.61601 0.39573,-1.00316c0.13191,-0.39599 0.2689,-0.81401 0.40893,-1.25396c0.01826,-0.06163 0.03145,-0.10996 0.03957,-0.14519l1.67527,0c-0.49213,1.50475 -0.82596,2.43308 -1.00252,2.7851c-0.35109,0.74801 -0.79959,1.21872 -1.3455,1.41235c-0.16641,0.06163 -0.35108,0.10559 -0.55402,0.13199zm4.72648,-1.09556c0.48401,-0.51914 1.30592,-0.77877 2.46674,-0.77877c1.16082,0 1.98374,0.25963 2.46674,0.77877c0.48401,0.51915 0.72551,1.39915 0.72551,2.63991c0,1.24075 -0.2415,2.12076 -0.72551,2.6399c-0.47488,0.51042 -1.29679,0.76558 -2.46674,0.76558c-1.16082,0 -1.98273,-0.25516 -2.46674,-0.76558c-0.483,-0.51914 -0.72552,-1.39915 -0.72552,-2.6399c0,-1.24076 0.24252,-2.12076 0.72552,-2.63991zm3.66713,0.95037c-0.21106,-0.29922 -0.61085,-0.44878 -1.20039,-0.44878c-0.58853,0 -0.98934,0.14956 -1.2004,0.44878c-0.21105,0.29039 -0.31658,0.8536 -0.31658,1.68954c0,0.8272 0.10553,1.39031 0.31658,1.68954c0.21106,0.29039 0.61187,0.43558 1.2004,0.43558c0.58954,0 0.98933,-0.14519 1.20039,-0.43558c0.22019,-0.29923 0.32978,-0.86234 0.32978,-1.68954c0,-0.83594 -0.10959,-1.39915 -0.32978,-1.68954zm8.62801,3.62987l0.15829,1.05596c-0.65042,0.26399 -1.44189,0.39599 -2.3744,0.39599c-1.15169,0 -1.96548,-0.25516 -2.44036,-0.76558c-0.47488,-0.51041 -0.71232,-1.39031 -0.71232,-2.6399c0,-1.24959 0.23744,-2.12949 0.71232,-2.63991c0.48401,-0.51041 1.30186,-0.76557 2.45355,-0.76557c0.897,0 1.64889,0.12316 2.25568,0.36959l-0.18467,1.00316c-0.43937,-0.01756 -1.0421,-0.0264 -1.80719,-0.0264c-0.65955,0 -1.11617,0.1452 -1.37187,0.43559c-0.25469,0.29039 -0.38255,0.83157 -0.38255,1.62354c0,0.8008 0.12785,1.35072 0.38255,1.64994c0.2557,0.29039 0.71232,0.43558 1.37187,0.43558c0.71232,0 1.35869,-0.04396 1.9391,-0.13199zm3.07353,-2.8511l1.20039,0c1.06442,0 1.794,0.15403 2.18973,0.46198c0.39573,0.29923 0.5936,0.85361 0.5936,1.66314c0,0.80081 -0.19381,1.35072 -0.58041,1.64995c-0.37848,0.29922 -1.02485,0.44878 -1.93909,0.44878c-1.26635,0 -2.25163,-0.0264 -2.95482,-0.0792l-0.05276,0l0,-6.46777l1.54336,0l0,2.32312zm6.52961,-2.32312l0,6.46777l-1.59613,0l0,-6.46777l1.59613,0zm-6.52961,5.34581l1.20039,0c0.45763,0 0.76509,-0.06163 0.92338,-0.18479c0.16743,-0.132 0.25063,-0.39162 0.25063,-0.77877c0,-0.36959 -0.0832,-0.62038 -0.25063,-0.75238c-0.15829,-0.13199 -0.46575,-0.19799 -0.92338,-0.19799l-1.20039,0l0,1.91393zm8.34897,1.12196l0,-5.02902c0,-1.00316 0.52358,-1.50474 1.56974,-1.50474c1.67122,0 2.86248,0.04843 3.5748,0.14519l-0.06596,1.12196l-2.8229,0c-0.22831,0 -0.39573,0.0528 -0.50126,0.1584c-0.10553,0.10559 -0.1583,0.27719 -0.1583,0.51478l0,4.59343l-1.59612,0zm12.27586,0l-1.43783,0l0,-3.73546c0,-0.0264 0.02232,-0.34756 0.06595,-0.96357l-0.03957,0c-0.08726,0.22876 -0.24556,0.51915 -0.47488,0.87117l-2.78333,3.82786l-1.31911,0l0,-6.46776l1.42464,0l0,3.77506c0,0.31679 -0.01725,0.62038 -0.05276,0.91077l0.03957,0c0.15018,-0.32562 0.30847,-0.59835 0.47488,-0.81837l2.78333,-3.86746l1.31911,0l0,6.46776zm7.83249,-6.46777l0,6.46777l-1.56975,0l0,-2.8379l-2.8229,0l0,2.8379l-1.58294,0l0,-6.46777l1.58294,0l0,2.45512l2.8229,0l0,-2.45512l1.56975,0zm1.94924,1.26716l-0.1451,-1.13516c1.13443,-0.21119 2.20697,-0.31679 3.21863,-0.31679c0.8351,0 1.45102,0.16723 1.84676,0.50158c0.39573,0.33436 0.5936,0.9196 0.5936,1.75554l0,4.39544l-1.26635,0l-0.17149,-0.98996c-0.67782,0.75674 -1.49972,1.13516 -2.46674,1.13516c-0.60679,0 -1.09993,-0.16276 -1.4774,-0.48838c-0.37849,-0.33436 -0.56722,-0.79634 -0.56722,-1.38595l0,-0.65998c0,-0.51915 0.16641,-0.9196 0.50126,-1.20116c0.33384,-0.28155 0.80466,-0.42238 1.41145,-0.42238l2.42717,0l0,-0.39599c-0.00913,-0.36959 -0.09234,-0.61601 -0.25063,-0.73917c-0.15829,-0.12316 -0.47082,-0.18479 -0.93657,-0.18479c-0.66869,0 -1.57482,0.04396 -2.71737,0.13199zm1.16082,3.00949l0,0.25079c0,0.28156 0.06595,0.48402 0.19786,0.60718c0.13191,0.12316 0.34703,0.18479 0.64637,0.18479c0.64129,0 1.27446,-0.25515 1.89952,-0.76557l0,-1.00316l-2.05782,0c-0.2557,0.00883 -0.4353,0.07483 -0.54083,0.19799c-0.09741,0.12316 -0.1451,0.29922 -0.1451,0.52798z" fill="#013B8E" id="svg_7" stroke="null"/>
  <use id="svg_20" xlink:href="#svg_19" y="-123.018589" x="-48.233298" transform="matrix(1.1141079701726604,0,0,1.0672995516600925,-135.8020693335752,129.3467705458184) " stroke="null"/>
 </g>
</svg>